<svg width="1200" height="1200" viewBox="0 0 1200 1200" fill="none" xmlns="http://www.w3.org/2000/svg">
  <path d="M600 0C268.6 0 0 268.6 0 600s268.6 600 600 600 600-268.6 600-600S931.4 0 600 0zm0 1080c-265.1 0-480-214.9-480-480S334.9 120 600 120s480 214.9 480 480-214.9 480-480 480z" fill="#004D4D"/>
  <path d="M600 240c-198.8 0-360 161.2-360 360s161.2 360 360 360 360-161.2 360-360-161.2-360-360-360zm0 640c-154.6 0-280-125.4-280-280s125.4-280 280-280 280 125.4 280 280-125.4 280-280 280z" fill="#00B37A"/>
</svg>